<svg xmlns="http://www.w3.org/2000/svg" viewBox="0 0 64 64" role="img" aria-label="Italian flashcard">
  <rect width="64" height="64" rx="14" fill="#0f172a"/>
  <rect x="12" y="8" width="40" height="48" rx="9" fill="#fff8f1" stroke="#0b1628" stroke-width="2"/>
  <rect x="16" y="12" width="8" height="6" rx="1.5" fill="#1aa35b"/>
  <rect x="24" y="12" width="12" height="6" rx="1.5" fill="#ffffff"/>
  <rect x="36" y="12" width="8" height="6" rx="1.5" fill="#d0291f"/>
  <path d="M28 48.5c1.1-5.2 1.6-8.1 2.7-13.3h-6.9l10.6-13.7h7.3l-5.5 12.8h6.9L28 48.5z" fill="#f59e0b"/>
  <path d="M21 39.5c0.7-2.5 2.4-4.6 4.7-5.8l1.4-0.7-2.7-4.4-1.4 0.7c-3.4 1.7-5.9 4.8-6.9 8.4l-0.4 1.6 5 1.3 0.3-1.1z" fill="#60a5fa"/>
</svg>
